<svg id="Capa_1" data-name="Capa 1" xmlns="http://www.w3.org/2000/svg" viewBox="0 0 377.73 83.77"><defs><style>.cls-1{fill:#ebeae8;}.cls-2{fill:#f4b301;}</style></defs><path class="cls-1" d="M134,.94a1.81,1.81,0,0,1,1.8-.94q16.86,0,33.72,0c1.38,0,1.79.41,1.79,1.77V8.87c0,1.36-.41,1.76-1.78,1.77h-.83V39.92h26q5.81,0,7.16,5.64a1.4,1.4,0,0,0,.09.17v1.73c-.11.39-.21.8-.34,1.19A6.69,6.69,0,0,1,195,53.23H171.36v12h.81q14,0,28,0a1.81,1.81,0,0,1,1.8.94v1.72H134V66.14c.55-1.18,1.68-.88,2.61-.94V10.7c-2.14-.26-2.14-.26-2.61-1Zm32,9.76H139.38V65.17H150v-.83q0-6.2,0-12.39c0-1.57-.06-3.14,0-4.7a10.63,10.63,0,0,1,15.38-8.86c.17.09.34.16.56.25Zm2.63,54.48a1.59,1.59,0,0,0,0-.23c0-5.85.08-11.71,0-17.55a8,8,0,0,0-16,.68c0,5.47,0,11,0,16.42v.68ZM136.69,7.94h31.93V2.71H136.69Zm36.46,42.64c1.91,0,3.63,0,5.35,0a1.1,1.1,0,0,0,.65-.36l7.18-7.15c.11-.12.21-.26.4-.48-1.44,0-2.76.07-4.07,0a3,3,0,0,0-2.59,1.05c-2,2.16-4.2,4.23-6.3,6.33Zm9.44,0c1.79,0,3.4,0,5,0a1.64,1.64,0,0,0,1-.42c2.36-2.31,4.68-4.64,7-7,.13-.13.25-.28.46-.51-.4,0-.71-.09-1-.09-1.32,0-2.65,0-4,0a1.46,1.46,0,0,0-.91.38c-2.39,2.35-4.76,4.73-7.14,7.1C182.93,50.19,182.82,50.33,182.59,50.58Zm16-6.3-6.25,6.22a26.19,26.19,0,0,0,3.75,0A3.91,3.91,0,0,0,198.57,44.28Zm-27.24,4L177,42.63h-7A10.85,10.85,0,0,1,171.33,48.27Z"/><path class="cls-1" d="M152.67,34.6h-9c-1.25,0-1.71-.46-1.71-1.73,0-5.94,0-11.88,0-17.82,0-1.28.46-1.74,1.77-1.74h17.79c1.33,0,1.78.46,1.78,1.8V32.8c0,1.38-.43,1.8-1.84,1.8Zm8-18.59h-16V31.92h2.63V30.78a5.53,5.53,0,0,1,1-3.24A5.33,5.33,0,0,1,158,30.63c0,.43,0,.86,0,1.26h2.66Zm-5.39,15.91c.3-1.64-.11-2.88-1.17-3.55a2.67,2.67,0,0,0-2.93,0c-1.27.88-1.26,2.16-1.14,3.51Z"/><path class="cls-1" d="M155.35,47.89a5.33,5.33,0,1,1,5.28,5.33A5.32,5.32,0,0,1,155.35,47.89Zm2.66,0a2.64,2.64,0,0,0,2.67,2.63A2.67,2.67,0,1,0,158,47.94Z"/><path class="cls-2" d="M14.09,22.28q6.26,0,9.91,3.27a11.45,11.45,0,0,1,3.61,9A11.41,11.41,0,0,1,24,43.41q-3.64,3.3-9.91,3.3H3.55V67H0V22.28Zm0,20.88q4.77,0,7.35-2.28a8,8,0,0,0,2.62-6.38,7.93,7.93,0,0,0-2.62-6.39q-2.58-2.28-7.35-2.28H3.55V43.16Z"/><path class="cls-2" d="M54.6,53.63H30.85c.07.75.15,1.38.25,1.9a9.46,9.46,0,0,0,3.37,5.89,10.67,10.67,0,0,0,6.79,2.06q6,0,8.92-3.74l3.24,1.59a12,12,0,0,1-5,4.21A16.88,16.88,0,0,1,41.26,67q-6.42,0-10.19-3.86T27.24,52.6v-.31q0-6.82,3.68-10.78t10-4A12.79,12.79,0,0,1,54.35,49.08,21.71,21.71,0,0,1,54.6,52ZM31.2,48.46a12.73,12.73,0,0,0-.32,2H51c0-.29-.07-.61-.13-1L50.77,49a1.24,1.24,0,0,0-.1-.31l0-.25A9.42,9.42,0,0,0,47.28,43a10.23,10.23,0,0,0-6.36-1.9A10.23,10.23,0,0,0,34.56,43,9.23,9.23,0,0,0,31.2,48.46Z"/><path class="cls-2" d="M83.4,37.58H87V67H83.4v-5.7a9.66,9.66,0,0,1-6.8,5.36l-.31.06a16.43,16.43,0,0,1-6,0L70,66.69a11.91,11.91,0,0,1-7.64-4.83,15.93,15.93,0,0,1-2.74-9.57,16,16,0,0,1,2.77-9.63A12,12,0,0,1,70,37.86l.34-.06a16,16,0,0,1,2.93-.25,16.57,16.57,0,0,1,3,.25l.28.06a9.7,9.7,0,0,1,6.89,5.36ZM73.27,63.48a9.59,9.59,0,0,0,7.48-2.93c1.76-1.95,2.65-4.71,2.65-8.26v0c0-3.53-.89-6.27-2.65-8.23a9.59,9.59,0,0,0-7.48-2.93A9.59,9.59,0,0,0,65.79,44Q63.13,47,63.14,52.29c0,3.55.88,6.31,2.65,8.26A9.59,9.59,0,0,0,73.27,63.48Z"/><path class="cls-2" d="M94,37.61h3.59v31q0,6.59-3.37,10.6a12.65,12.65,0,0,1-9.13,4.52V80.18a9.24,9.24,0,0,0,6.61-3.46A12.92,12.92,0,0,0,94,68.65ZM95.77,26a2.12,2.12,0,0,1,2.12,2.12,2.13,2.13,0,0,1-2.12,2.12,2.08,2.08,0,0,1-1.53-.63,2,2,0,0,1-.62-1.49,2.08,2.08,0,0,1,.62-1.5A2.11,2.11,0,0,1,95.77,26Z"/><path class="cls-2" d="M130.24,53.63H106.49a17.45,17.45,0,0,0,.25,1.9,9.46,9.46,0,0,0,3.37,5.89,10.67,10.67,0,0,0,6.79,2.06q6,0,8.91-3.74l3.24,1.59a11.91,11.91,0,0,1-5,4.21A16.88,16.88,0,0,1,116.9,67q-6.42,0-10.19-3.86T102.88,52.6v-.31q0-6.82,3.67-10.78t10-4A12.81,12.81,0,0,1,130,49.08a23.46,23.46,0,0,1,.25,2.93Zm-23.41-5.17a12.8,12.8,0,0,0-.31,2h20.07a9.66,9.66,0,0,0-.12-1l-.06-.44c0-.1-.06-.21-.1-.31l0-.25A9.38,9.38,0,0,0,122.91,43a11.58,11.58,0,0,0-12.71,0A9.29,9.29,0,0,0,106.83,48.46Z"/><path class="cls-2" d="M226.92,23.86v6.32H214.08V68.77h-6.32V30.18H194.92V23.86Z"/><path class="cls-2" d="M229.23,68.77H222.9V38.22h6.33v2.53a10.76,10.76,0,0,1,4.55-2.21l.31-.07a17.58,17.58,0,0,1,3.12-.28v6.33q-4.46,0-6.45,2.93a10.51,10.51,0,0,0-1.53,6Z"/><path class="cls-2" d="M260.52,38.19h6.33V68.77h-6.33V66.24A10.49,10.49,0,0,1,256,68.42l-.34.07a17.58,17.58,0,0,1-3.12.28,17.38,17.38,0,0,1-3.11-.28l-.35-.07a12.59,12.59,0,0,1-7.91-5,16.24,16.24,0,0,1-2.93-9.95,16.39,16.39,0,0,1,2.93-10,12.61,12.61,0,0,1,8-5l.31-.09a18.74,18.74,0,0,1,3-.25,19,19,0,0,1,3.06.25l.31.09a10.46,10.46,0,0,1,4.61,2.19Zm0,15.24a10.49,10.49,0,0,0-1.53-6c-1.33-2-3.48-2.93-6.45-2.93s-5.15,1-6.48,2.93a10.8,10.8,0,0,0-1.5,6,10.69,10.69,0,0,0,1.5,6q2,3,6.48,3T259,59.51a10.51,10.51,0,0,0,1.53-6Z"/><path class="cls-2" d="M286.14,68.77a13.55,13.55,0,0,1-10.41-4.18q-3.9-4.14-3.9-11.13t3.9-11.12a13.52,13.52,0,0,1,10.41-4.18,14.79,14.79,0,0,1,7.73,2,12.53,12.53,0,0,1,5.05,5.64l-5.74,2.65c-1.23-2.64-3.57-4-7-4-3,0-5.13,1-6.49,2.93a10.89,10.89,0,0,0-1.49,6,10.92,10.92,0,0,0,1.49,6q2,2.93,6.49,2.93,5.24,0,7.07-4L299,61a12.74,12.74,0,0,1-5,5.7A14.81,14.81,0,0,1,286.14,68.77Z"/><path class="cls-2" d="M310.26,68.77h-6.33V23.86h6.33V50q3.36-4,9.91-11.78h8.23l-9.82,11.72L330.7,68.77h-7.51L314.31,55c-2.14,2.54-3.49,4.1-4.05,4.71Z"/><path class="cls-2" d="M358.44,56.21h-22q1.21,6.23,8,6.23a10.8,10.8,0,0,0,4.86-1,6.4,6.4,0,0,0,3-2.9l5.67,2.78a12.3,12.3,0,0,1-5.3,5.48,16.53,16.53,0,0,1-8.19,2q-6.68,0-10.63-4.18t-4-11.13q0-7,3.9-11.12a13.52,13.52,0,0,1,10.41-4.18,13.46,13.46,0,0,1,14.05,12.06,17,17,0,0,1,.25,3v3Zm-6.67-6q-1.33-5.73-7.63-5.73t-7.64,5.73Z"/><path class="cls-2" d="M369.75,68.77h-6.32V38.22h6.32v2.53a10.82,10.82,0,0,1,4.55-2.21l.32-.07a17.38,17.38,0,0,1,3.11-.28v6.33q-4.46,0-6.45,2.93a10.51,10.51,0,0,0-1.53,6Z"/></svg>